General
Unique ID                                : 204388147720993510522194883907746766442 (0x99C25C3E20EF4EE2BA1905E51D4D7A6A)
Complete name                            : The.Angry.Birds.Movie.2016.1080p.BluRay.REMUX.AVC.DTS-HD.MA.7.1-FGT.mkv
Format                                   : Matroska
Format version                           : Version 4 / Version 2
File size                                : 26.2 GiB
Duration                                 : 1 h 37 min
Overall bit rate mode                    : Variable
Overall bit rate                         : 38.6 Mb/s
Movie name                               : The Angry Birds Movie (2016)
Encoded date                             : UTC 2016-08-16 14:22:30
Writing application                      : mkvmerge v9.3.0 ('Rakkaus') 64bit
Writing library                          : libebml v1.3.4 + libmatroska v1.4.5

Video
ID                                       : 1
Format                                   : AVC
Format/Info                              : Advanced Video Codec
Format profile                           : High@L4.1
Format settings                          : CABAC / 4 Ref Frames
Format settings, CABAC                   : Yes
Format settings, Reference frames        : 4 frames
Codec ID                                 : V_MPEG4/ISO/AVC
Duration                                 : 1 h 37 min
Bit rate mode                            : Variable
Bit rate                                 : 30.5 Mb/s
Maximum bit rate                         : 40.0 Mb/s
Width                                    : 1 920 pixels
Height                                   : 1 080 pixels
Display aspect ratio                     : 16:9
Frame rate mode                          : Constant
Frame rate                               : 23.976 (24000/1001) FPS
Color space                              : YUV
Chroma subsampling                       : 4:2:0
Bit depth                                : 8 bits
Scan type                                : Progressive
Bits/(Pixel*Frame)                       : 0.614
Stream size                              : 20.8 GiB (79%)
Language                                 : English
Default                                  : Yes
Forced                                   : No
Color range                              : Limited
Color primaries                          : BT.709
Transfer characteristics                 : BT.709
Matrix coefficients                      : BT.709

Audio #1
ID                                       : 2
Format                                   : DTS XLL
Format/Info                              : Digital Theater Systems High Definition Lossless
Commercial name                          : DTS-HD Master Audio
Codec ID                                 : A_DTS
Duration                                 : 1 h 37 min
Bit rate mode                            : Variable
Bit rate                                 : 4 812 kb/s
Channel(s)                               : 8 channels
Channel layout                           : C L R Ls Rs Lb Rb LFE
Sampling rate                            : 48.0 kHz
Frame rate                               : 93.750 FPS (512 SPF)
Bit depth                                : 24 bits
Compression mode                         : Lossless
Stream size                              : 3.27 GiB (12%)
Title                                    : English DTS-HD MA 7.1
Language                                 : English
Service kind                             : Complete main
Default                                  : Yes
Forced                                   : No

Audio #2
ID                                       : 3
Format                                   : DTS XLL
Format/Info                              : Digital Theater Systems High Definition Lossless
Commercial name                          : DTS-HD Master Audio
Codec ID                                 : A_DTS
Duration                                 : 1 h 37 min
Bit rate mode                            : Variable
Bit rate                                 : 2 154 kb/s
Channel(s)                               : 6 channels
Channel layout                           : C L R Ls Rs LFE
Sampling rate                            : 48.0 kHz
Frame rate                               : 93.750 FPS (512 SPF)
Bit depth                                : 16 bits
Compression mode                         : Lossless
Stream size                              : 1.46 GiB (6%)
Title                                    : French (Canada) DTS-HD MA 5.1
Language                                 : French
Service kind                             : Complete main
Default                                  : No
Forced                                   : No

Audio #3
ID                                       : 4
Format                                   : AC-3
Format/Info                              : Audio Coding 3
Commercial name                          : Dolby Digital
Codec ID                                 : A_AC3
Duration                                 : 1 h 37 min
Bit rate mode                            : Constant
Bit rate                                 : 640 kb/s
Channel(s)                               : 6 channels
Channel layout                           : L C R Ls Rs LFE
Sampling rate                            : 48.0 kHz
Frame rate                               : 31.250 FPS (1536 SPF)
Bit depth                                : 16 bits
Compression mode                         : Lossy
Stream size                              : 446 MiB (2%)
Title                                    : Spanish (Latin America) DD 5.1
Language                                 : Spanish
Service kind                             : Complete main
Default                                  : No
Forced                                   : No

Audio #4
ID                                       : 5
Format                                   : AC-3
Format/Info                              : Audio Coding 3
Commercial name                          : Dolby Digital
Codec ID                                 : A_AC3
Duration                                 : 1 h 37 min
Bit rate mode                            : Constant
Bit rate                                 : 640 kb/s
Channel(s)                               : 6 channels
Channel layout                           : L C R Ls Rs LFE
Sampling rate                            : 48.0 kHz
Frame rate                               : 31.250 FPS (1536 SPF)
Bit depth                                : 16 bits
Compression mode                         : Lossy
Stream size                              : 446 MiB (2%)
Title                                    : Portuguese (Brazil) DD 5.1
Language                                 : Portuguese
Service kind                             : Complete main
Default                                  : No
Forced                                   : No

Audio #5
ID                                       : 6
Format                                   : AC-3
Format/Info                              : Audio Coding 3
Commercial name                          : Dolby Digital
Codec ID                                 : A_AC3
Duration                                 : 1 h 37 min
Bit rate mode                            : Constant
Bit rate                                 : 192 kb/s
Channel(s)                               : 2 channels
Channel layout                           : L R
Sampling rate                            : 48.0 kHz
Frame rate                               : 31.250 FPS (1536 SPF)
Bit depth                                : 16 bits
Compression mode                         : Lossy
Stream size                              : 134 MiB (0.5%)
Title                                    : English Audio Description DD 2.0
Language                                 : English
Service kind                             : Visually impaired
Default                                  : No
Forced                                   : No

Text #1
ID                                       : 7
Format                                   : PGS
Muxing mode                              : zlib
Codec ID                                 : S_HDMV/PGS
Codec ID/Info                            : Picture based subtitle format used on BDs/HD-DVDs
Duration                                 : 1 h 36 min
Bit rate                                 : 41.2 kb/s
Count of elements                        : 3244
Stream size                              : 28.5 MiB (0.1%)
Title                                    : English (SDH) PGS
Language                                 : English
Default                                  : Yes
Forced                                   : No

Text #2
ID                                       : 8
Format                                   : PGS
Muxing mode                              : zlib
Codec ID                                 : S_HDMV/PGS
Codec ID/Info                            : Picture based subtitle format used on BDs/HD-DVDs
Duration                                 : 1 h 34 min
Bit rate                                 : 31.8 kb/s
Count of elements                        : 2602
Stream size                              : 21.4 MiB (0.1%)
Title                                    : French PGS
Language                                 : French
Default                                  : No
Forced                                   : No

Text #3
ID                                       : 9
Format                                   : PGS
Muxing mode                              : zlib
Codec ID                                 : S_HDMV/PGS
Codec ID/Info                            : Picture based subtitle format used on BDs/HD-DVDs
Duration                                 : 1 h 35 min
Bit rate                                 : 33.4 kb/s
Count of elements                        : 2790
Stream size                              : 22.8 MiB (0.1%)
Title                                    : Spanish PGS
Language                                 : Spanish
Default                                  : No
Forced                                   : No

Text #4
ID                                       : 10
Format                                   : PGS
Muxing mode                              : zlib
Codec ID                                 : S_HDMV/PGS
Codec ID/Info                            : Picture based subtitle format used on BDs/HD-DVDs
Duration                                 : 1 h 35 min
Bit rate                                 : 32.1 kb/s
Count of elements                        : 2712
Stream size                              : 21.9 MiB (0.1%)
Title                                    : Portuguese PGS
Language                                 : Portuguese
Default                                  : No
Forced                                   : No